<?xml version="1.0" encoding="UTF-8"?>
<svg version="1.1" xmlns="http://www.w3.org/2000/svg" width="512" height="512">
<path d="M0 0 C0.92643311 0.00249756 1.85286621 0.00499512 2.80737305 0.00756836 C3.98082275 0.01667236 5.15427246 0.02577637 6.36328125 0.03515625 C11.96296875 0.06609375 11.96296875 0.06609375 17.67578125 0.09765625 C17.67578125 13.29765625 17.67578125 26.49765625 17.67578125 40.09765625 C13.71578125 40.75765625 9.75578125 41.41765625 5.67578125 42.09765625 C3.36295538 45.56689506 3.25099539 47.019712 3.67578125 51.09765625 C5.529209 53.65715171 6.61334518 54.07684423 9.67578125 55.09765625 C14.21476989 55.30378495 18.75621157 55.28345659 23.29931641 55.28295898 C25.53567649 55.28514151 27.77153992 55.30329746 30.0078125 55.32226562 C31.43619624 55.32520065 32.86458231 55.32718471 34.29296875 55.328125 C36.23598877 55.33428833 36.23598877 55.33428833 38.21826172 55.34057617 C41.53044011 55.10786769 43.75484197 54.64162009 46.67578125 53.09765625 C48.07513138 50.29895598 47.9284353 48.19266833 47.67578125 45.09765625 C44.05386664 40.90653166 44.05386664 40.90653166 33.67578125 40.09765625 C33.67578125 26.89765625 33.67578125 13.69765625 33.67578125 0.09765625 C75.91578125 0.09765625 118.15578125 0.09765625 161.67578125 0.09765625 C161.67578125 13.29765625 161.67578125 26.49765625 161.67578125 40.09765625 C157.71578125 40.75765625 153.75578125 41.41765625 149.67578125 42.09765625 C147.36295538 45.56689506 147.25099539 47.019712 147.67578125 51.09765625 C149.529209 53.65715171 150.61334518 54.07684423 153.67578125 55.09765625 C158.21476989 55.30378495 162.75621157 55.28345659 167.29931641 55.28295898 C169.53567649 55.28514151 171.77153992 55.30329746 174.0078125 55.32226562 C175.43619624 55.32520065 176.86458231 55.32718471 178.29296875 55.328125 C180.23598877 55.33428833 180.23598877 55.33428833 182.21826172 55.34057617 C185.53044011 55.10786769 187.75484197 54.64162009 190.67578125 53.09765625 C192.07513138 50.29895598 191.9284353 48.19266833 191.67578125 45.09765625 C188.05386664 40.90653166 188.05386664 40.90653166 177.67578125 40.09765625 C177.67578125 26.89765625 177.67578125 13.69765625 177.67578125 0.09765625 C181.26453125 0.01515625 184.85328125 -0.06734375 188.55078125 -0.15234375 C189.66050293 -0.18875977 190.77022461 -0.22517578 191.91357422 -0.26269531 C202.51935441 -0.37926301 211.54305205 3.283748 219.67578125 10.09765625 C228.28259912 18.79619865 231.85996258 28.77067237 233.09301758 40.78637695 C233.20676885 41.78253934 233.32052011 42.77870173 233.43771839 43.80505085 C233.78167266 46.84536903 234.11221705 49.88690459 234.43977022 52.92902422 C234.88815689 57.04911006 235.35665029 61.16695193 235.82113647 65.2852478 C237.23723809 77.88033376 238.61993967 90.47904692 240 103.078125 C240.12496235 104.21850165 240.2499247 105.35887829 240.37867379 106.53381181 C241.56091138 117.32391517 242.74164233 128.11418239 243.91865826 138.90485668 C245.41232582 152.59766919 246.91359266 166.28960112 248.42516583 179.9804489 C249.49473605 189.67373657 250.55555073 199.36795908 251.61003429 209.06289941 C252.23706401 214.82568787 252.8677665 220.58801468 253.50797081 226.3493557 C254.10975757 231.7666272 254.70055197 237.18499232 255.28342819 242.60433006 C255.49717487 244.57457003 255.71467107 246.54440805 255.93652153 248.51375198 C257.0629391 258.53314253 257.86158972 268.45612405 257.90632629 278.54463196 C257.91219181 279.41074826 257.91805732 280.27686457 257.92410058 281.16922683 C257.84393123 292.77928468 253.59493983 301.01097432 245.60546875 309.2265625 C237.07923771 317.29231765 228.81768948 320.25984444 217.22235107 320.21791077 C216.36138738 320.21876519 215.50042368 320.21961962 214.61337018 320.22049993 C211.72367104 320.22214922 208.83402974 320.21664234 205.94433594 320.21118164 C203.87480674 320.21089962 201.80527743 320.21105779 199.73574829 320.21162415 C194.11218883 320.21191156 188.48865061 320.20602389 182.86509609 320.19905019 C176.99008224 320.1928073 171.11506793 320.19221211 165.24005127 320.19102478 C154.11248285 320.18791423 142.98492423 320.17970455 131.85736012 320.16967529 C119.19003689 320.1585056 106.52271319 320.15300154 93.85538626 320.14797986 C67.79551248 320.13752172 41.73564742 320.1199276 15.67578125 320.09765625 C16.08851288 319.62329636 16.50124451 319.14893646 16.92648315 318.66020203 C17.46749664 318.03458878 18.00851013 317.40897552 18.56591797 316.7644043 C19.1023996 316.1456694 19.63888123 315.52693451 20.19161987 314.88945007 C29.28060137 303.91653219 33.52268745 288.89493013 32.38256836 274.83984375 C31.84705447 269.24810828 31.16436845 263.67379252 30.48828125 258.09765625 C30.2267176 255.88158806 29.96584173 253.66543862 29.70556641 251.44921875 C29.173836 246.94267198 28.63662879 242.43683691 28.09386444 237.93161011 C27.00986902 228.93264795 25.9515272 219.93083068 24.90009594 210.92800903 C23.86034234 202.03065249 22.81006945 193.13457137 21.75323963 184.23922729 C21.08542467 178.61743247 20.42104413 172.9952858 19.76528931 167.37207031 C19.13643208 161.98409072 18.49534775 156.59769244 17.84564018 151.21218872 C17.60561193 149.20607881 17.36969564 147.19947185 17.1382618 145.19235229 C14.91440409 125.94938956 11.60670344 107.06077923 -4.32421875 94.09765625 C-14.7267648 86.38678878 -24.75679959 82.97695544 -37.55078125 81.4921875 C-40.32421875 81.09765625 -40.32421875 81.09765625 -41.32421875 80.09765625 C-41.26392553 70.01361474 -39.96781479 59.86759872 -38.94921875 49.84765625 C-38.83545898 48.67678467 -38.72169922 47.50591309 -38.60449219 46.29956055 C-37.00087272 31.11542235 -33.94045077 17.66170227 -21.578125 7.59765625 C-15.10409461 3.28911609 -7.81787049 -0.04319265 0 0 Z " fill="#4A89B2" transform="translate(238.32421875,151.90234375)"/>
<path d="M0 0 C1.77661766 -0.01073296 1.77661766 -0.01073296 3.58912659 -0.02168274 C4.88526886 -0.02437164 6.18141113 -0.02706055 7.51683044 -0.02983093 C8.89857147 -0.03609906 10.28031082 -0.04274617 11.66204834 -0.04974365 C16.19753351 -0.07075193 20.73301887 -0.08114575 25.26853943 -0.09111023 C26.83341425 -0.09515955 28.3982889 -0.09927652 29.96316338 -0.10346031 C37.31920502 -0.12250803 44.67523667 -0.1367377 52.03129822 -0.14507228 C60.50351219 -0.15483146 68.97546398 -0.18111802 77.44758564 -0.22157317 C84.0074464 -0.25181432 90.56723237 -0.26654887 97.12716144 -0.26985329 C101.03940695 -0.27219544 104.95137226 -0.28104561 108.86354256 -0.30631447 C112.54986959 -0.32973966 116.23573482 -0.33377119 119.92211723 -0.32355309 C121.90359859 -0.32282824 123.88505725 -0.34181916 125.86643982 -0.36161804 C138.70180437 -0.28760203 148.15172939 3.29081504 157.33103943 12.21748352 C164.16688069 19.4435846 167.4869445 26.95446977 168.71287537 36.77973938 C168.82907604 37.62552772 168.94527672 38.47131605 169.06499863 39.34273434 C169.46113258 42.27556373 169.83323896 45.21079474 170.20213318 48.14717102 C170.34369339 49.25175282 170.4852536 50.35633461 170.63110352 51.49438858 C171.712106 59.94918439 172.74849901 68.40917048 173.77011204 76.87130094 C174.03320796 79.05051017 174.29685529 81.22965213 174.56061554 83.40878105 C175.3895766 90.26037949 176.21583957 97.11229622 177.03857541 103.96464497 C177.98150776 111.81737563 178.93402561 119.66886833 179.89448094 127.51947457 C180.64229066 133.63708341 181.381264 139.75572063 182.1137054 145.87518829 C182.54903572 149.51056379 182.98801354 153.14540468 183.43642426 156.77919197 C183.93517364 160.82299998 184.4155741 164.86879147 184.89451599 168.91499329 C185.04300995 170.09702332 185.19150391 171.27905334 185.34449768 172.49690247 C186.81917714 185.23673447 186.06585388 196.51168151 178.51463318 207.27217102 C171.04225103 216.4961839 162.39271191 223.17919485 150.30482483 224.60776138 C145.76743896 224.85590568 141.23286733 224.82420561 136.69041443 224.79414368 C134.95443306 224.80093239 133.2184589 224.80984251 131.48249817 224.82069397 C126.80055199 224.84334506 122.11916124 224.83471011 117.43720627 224.81879854 C112.51809535 224.80606552 107.59902934 224.81790009 102.67991638 224.82572937 C94.4219364 224.83480449 86.16418062 224.8228943 77.90623474 224.79902649 C68.38346417 224.77181936 58.86122902 224.78063504 49.33847141 224.80815852 C41.13594031 224.83090968 32.9335696 224.83402038 24.73101711 224.82096517 C19.84358391 224.8132036 14.95640168 224.81203779 10.06898499 224.82864761 C5.47219125 224.8431809 0.87608215 224.83291035 -3.72063828 224.80417633 C-5.39910627 224.79761253 -7.07763274 224.79938172 -8.75607681 224.81048965 C-22.64146598 224.89385185 -33.34044051 222.47815507 -43.60646057 212.54170227 C-51.90783628 203.47085858 -55.45017922 194.35503959 -55.79786682 182.14717102 C-55.51906625 177.17349818 -54.93156239 172.24537613 -54.32252502 167.30342102 C-54.15088877 165.84194212 -53.98021623 164.38034977 -53.8104248 162.9186554 C-53.34973847 158.97935063 -52.87473366 155.04190058 -52.39626336 151.10472107 C-51.99669077 147.80526142 -51.6043713 144.50495568 -51.21204346 141.20462799 C-50.28579043 133.41339191 -49.34802127 125.62360314 -48.40260315 117.83467102 C-47.4306079 109.82536707 -46.47650706 101.81407844 -45.53147632 93.80155182 C-44.71650567 86.89642984 -43.89117537 79.99260085 -43.05748433 73.08971405 C-42.56097654 68.97824357 -42.06809486 64.86642798 -41.58487892 60.75337219 C-41.12978864 56.88418494 -40.66164434 53.01678783 -40.18381691 49.15034485 C-40.01159468 47.73968283 -39.8437632 46.32847592 -39.68090439 44.91670227 C-37.81648853 28.80894404 -33.57946527 17.57604959 -21.17286682 6.90888977 C-14.75486851 2.14817063 -7.9176994 0.03287671 0 0 Z M10.20213318 44.14717102 C4.87680836 60.14718265 9.07087131 84.42946035 16.20213318 99.14717102 C23.92665239 112.86213371 35.95067195 121.63149944 50.95213318 126.02217102 C67.00929142 129.55306446 83.2864297 126.96825084 97.20213318 118.14717102 C110.354106 108.14973043 117.92911807 95.69269189 120.51463318 79.14741516 C121.32114851 72.7637023 121.42033241 66.38740079 121.45213318 59.95967102 C121.47275818 58.90586243 121.49338318 57.85205383 121.51463318 56.76631165 C121.54280874 51.1769846 121.50163362 46.91222627 118.20213318 42.14717102 C115.36129677 40.72675281 113.3473604 40.8326483 110.20213318 41.14717102 C107.35432699 43.37923533 106.35215652 44.69710101 105.20213318 48.14717102 C105.09677431 50.52055631 105.04686716 52.89653693 105.02635193 55.27217102 C105.00312368 56.71619553 104.9790052 58.16020594 104.9540863 59.60420227 C104.91924305 61.86389698 104.88977785 64.1230825 104.87620544 66.38301086 C104.77508095 80.48754414 102.53107209 91.32709075 92.61228943 101.83076477 C83.92809041 110.02456196 72.84964631 111.6337711 61.38963318 111.42451477 C50.18176166 110.91251882 41.4536591 105.89601231 33.95213318 97.83467102 C28.10537135 90.665617 26.09399869 82.77356775 25.95603943 73.71357727 C25.92310697 72.24547222 25.88989523 70.7773734 25.85643005 69.3092804 C25.80903362 67.00748377 25.76456572 64.70571354 25.72532654 62.40376282 C25.68547809 60.17344254 25.63397697 57.94362001 25.58103943 55.71357727 C25.57262527 55.0300972 25.56421112 54.34661713 25.55554199 53.64242554 C25.45522128 49.73981309 25.07093183 46.60290002 23.20213318 43.14717102 C18.52318671 40.02787338 14.22169195 39.97873971 10.20213318 44.14717102 Z " fill="#47A6CC" transform="translate(70.79786682128906,247.8528289794922)"/>
<path d="M0 0 C1.14001465 0.00902344 2.2800293 0.01804688 3.45458984 0.02734375 C21.75372469 0.40223 39.55036277 6.96997125 53.1875 19.4375 C54.52554688 20.63826172 54.52554688 20.63826172 55.890625 21.86328125 C65.8414644 31.25676489 72.87333778 42.40354702 77.1875 55.4375 C77.58134888 56.53892334 77.58134888 56.53892334 77.9831543 57.66259766 C81.29144323 68.40455436 80.51330174 79.57639062 80.375 90.6875 C80.35992604 92.80077171 80.34624244 94.91405383 80.33398438 97.02734375 C80.30119351 102.16432273 80.24956057 107.30079467 80.1875 112.4375 C74.9075 112.4375 69.6275 112.4375 64.1875 112.4375 C64.13851562 110.30152344 64.08953125 108.16554688 64.0390625 105.96484375 C63.98467697 103.83970559 63.92751941 101.71465819 63.87011719 99.58959961 C63.8324063 98.14012741 63.7974664 96.69057981 63.765625 95.2409668 C63.26397441 72.65885185 60.63197542 52.22285346 44.375 35.125 C31.28319991 22.70155006 14.40021131 17.83356623 -3.4453125 18.16015625 C-19.93125382 18.89948561 -34.29221409 25.77243492 -45.8125 37.4375 C-46.37582031 37.97890625 -46.93914062 38.5203125 -47.51953125 39.078125 C-62.4008872 54.6269824 -62.82708429 76.92156592 -63.375 97.0625 C-63.41829715 98.55860312 -63.46191456 100.05469701 -63.50585938 101.55078125 C-63.61235263 105.17958907 -63.7122865 108.80849186 -63.8125 112.4375 C-69.0925 112.4375 -74.3725 112.4375 -79.8125 112.4375 C-79.91252111 106.30351335 -79.98450492 100.17001727 -80.03222656 94.03540039 C-80.05215241 91.95523798 -80.0793032 89.87513016 -80.11425781 87.79516602 C-80.37181668 72.05756151 -79.56141448 58.23896682 -72 44.0625 C-71.65235596 43.39387939 -71.30471191 42.72525879 -70.9465332 42.03637695 C-68.09296487 36.68618014 -64.913494 31.92321799 -60.8125 27.4375 C-60.01199219 26.54546875 -59.21148437 25.6534375 -58.38671875 24.734375 C-42.99899265 8.43362897 -22.35087665 -0.21327808 0 0 Z " fill="#47A6CC" transform="translate(335.8125,39.5625)"/>
</svg>
